<svg width="26" height="27" viewBox="0 0 26 27" fill="none" xmlns="http://www.w3.org/2000/svg">
<g clip-path="url(#clip0_1837_7979)">
<path d="M8.75736 9.25736C7.67157 10.3431 7 11.8431 7 13.5H1C1 10.1863 2.34315 7.18629 4.51472 5.01472L8.75736 9.25736Z" fill="#415869"/>
<path d="M17.2426 9.25736C16.1569 8.17157 14.6569 7.5 13 7.5V1.5C16.3137 1.5 19.3137 2.84315 21.4853 5.01472L17.2426 9.25736Z" fill="#415869"/>
<path d="M17.2426 17.7426C18.3284 16.6569 19 15.1569 19 13.5H25C25 16.8137 23.6569 19.8137 21.4853 21.9853L17.2426 17.7426Z" fill="#415869"/>
<path d="M8.75736 17.7426C9.84315 18.8284 11.3431 19.5 13 19.5V25.5C9.68629 25.5 6.68629 24.1569 4.51472 21.9853L8.75736 17.7426Z" fill="#415869"/>
<path fill-rule="evenodd" clip-rule="evenodd" d="M5.96091 5.0467L8.8079 7.89368C9.72384 7.2079 10.8142 6.74076 12 6.57097V2.5448C9.71311 2.75072 7.62876 3.65614 5.96091 5.0467ZM14 2.5448V6.57097C15.1858 6.74076 16.2762 7.2079 17.1921 7.89368L20.0391 5.0467C18.3712 3.65614 16.2869 2.75072 14 2.5448ZM21.4533 6.46091L18.6063 9.3079C19.2921 10.2238 19.7592 11.3142 19.929 12.5H23.9552C23.7493 10.2131 22.8439 8.12876 21.4533 6.46091ZM23.9552 14.5H19.929C19.7592 15.6858 19.2921 16.7762 18.6063 17.6921L21.4533 20.5391C22.8439 18.8712 23.7493 16.7869 23.9552 14.5ZM20.0391 21.9533L17.1921 19.1063C16.2762 19.7921 15.1858 20.2592 14 20.429V24.4552C16.2869 24.2493 18.3712 23.3439 20.0391 21.9533ZM12 24.4552V20.429C10.8142 20.2592 9.72384 19.7921 8.8079 19.1063L5.96091 21.9533C7.62876 23.3439 9.71311 24.2493 12 24.4552ZM4.5467 20.5391L7.39368 17.6921C6.7079 16.7762 6.24076 15.6858 6.07097 14.5H2.0448C2.25072 16.7869 3.15614 18.8712 4.5467 20.5391ZM2.0448 12.5H6.07097C6.24076 11.3142 6.7079 10.2238 7.39368 9.3079L4.5467 6.46091C3.15614 8.12876 2.25072 10.2131 2.0448 12.5ZM3.80761 4.30761C6.15905 1.95617 9.41043 0.5 13 0.5C16.5896 0.5 19.8409 1.95617 22.1924 4.30761C24.5438 6.65905 26 9.91043 26 13.5C26 17.0896 24.5438 20.3409 22.1924 22.6924C19.8409 25.0438 16.5896 26.5 13 26.5C9.41043 26.5 6.15905 25.0438 3.80761 22.6924C1.45617 20.3409 0 17.0896 0 13.5C0 9.91043 1.45617 6.65905 3.80761 4.30761ZM13 8.5C11.619 8.5 10.3704 9.05855 9.46447 9.96447C8.55855 10.8704 8 12.119 8 13.5C8 14.881 8.55855 16.1296 9.46447 17.0355C10.3704 17.9415 11.619 18.5 13 18.5C14.381 18.5 15.6296 17.9415 16.5355 17.0355C17.4415 16.1296 18 14.881 18 13.5C18 12.119 17.4415 10.8704 16.5355 9.96447C15.6296 9.05855 14.381 8.5 13 8.5Z" fill="#AAD1FF"/>
</g>
<defs>
<clipPath id="clip0_1837_7979">
<rect width="26.0002" height="27" fill="white"/>
</clipPath>
</defs>
</svg>
