<svg width="40" height="40" viewBox="0 0 40 40" fill="none" xmlns="http://www.w3.org/2000/svg">
<path d="M14.6965 14.6967C13.3392 16.0539 12.4998 17.9289 12.4998 20H4.99976C4.99976 15.8579 6.67869 12.1079 9.39316 9.3934L14.6965 14.6967Z" fill="#C4CD49"/>
<path d="M25.3031 14.6967C23.9458 13.3395 22.0708 12.5 19.9998 12.5V5C24.1419 5 27.8919 6.67893 30.6064 9.3934L25.3031 14.6967Z" fill="#C4CD49"/>
<path d="M25.3031 25.3033C26.6603 23.9461 27.4998 22.0711 27.4998 20H34.9998C34.9998 24.1421 33.3208 27.8921 30.6064 30.6066L25.3031 25.3033Z" fill="#C4CD49"/>
<path d="M14.6965 25.3033C16.0537 26.6605 17.9287 27.5 19.9998 27.5V35C15.8576 35 12.1076 33.3211 9.39315 30.6066L14.6965 25.3033Z" fill="#C4CD49"/>
<path fill-rule="evenodd" clip-rule="evenodd" d="M11.2009 9.43337L14.7596 12.9921C15.9046 12.1349 17.2675 11.551 18.7498 11.3387V6.306C15.8911 6.56341 13.2857 7.69518 11.2009 9.43337ZM21.2498 6.306V11.3387C22.732 11.5509 24.095 12.1349 25.2399 12.9921L28.7986 9.43337C26.7138 7.69518 24.1084 6.56341 21.2498 6.306ZM30.5664 11.2011L27.0077 14.7599C27.8649 15.9048 28.4488 17.2677 28.661 18.75H33.6938C33.4363 15.8914 32.3046 13.2859 30.5664 11.2011ZM33.6938 21.25H28.661C28.4488 22.7323 27.8649 24.0952 27.0077 25.2401L30.5664 28.7989C32.3046 26.7141 33.4363 24.1086 33.6938 21.25ZM28.7986 30.5666L25.2399 27.0079C24.095 27.8651 22.732 28.4491 21.2498 28.6613V33.694C24.1084 33.4366 26.7138 32.3048 28.7986 30.5666ZM18.7498 33.694V28.6613C17.2675 28.4491 15.9046 27.8651 14.7596 27.0079L11.2009 30.5666C13.2857 32.3048 15.8911 33.4366 18.7498 33.694ZM9.43313 28.7989L12.9919 25.2401C12.1346 24.0952 11.5507 22.7323 11.3385 21.25H6.30576C6.56316 24.1086 7.69493 26.7141 9.43313 28.7989ZM6.30576 18.75H11.3385C11.5507 17.2677 12.1346 15.9048 12.9919 14.7599L9.43313 11.2011C7.69493 13.2859 6.56316 15.8914 6.30576 18.75ZM8.50927 8.50951C11.4486 5.57021 15.5128 3.75 19.9998 3.75C24.4867 3.75 28.5509 5.57021 31.4902 8.50951C34.4295 11.4488 36.2498 15.513 36.2498 20C36.2498 24.487 34.4295 28.5512 31.4902 31.4905C28.5509 34.4298 24.4867 36.25 19.9998 36.25C15.5128 36.25 11.4486 34.4298 8.50927 31.4905C5.56997 28.5512 3.74976 24.487 3.74976 20C3.74976 15.513 5.56997 11.4488 8.50927 8.50951ZM19.9998 13.75C18.2735 13.75 16.7127 14.4482 15.5803 15.5806C14.4479 16.713 13.7498 18.2738 13.7498 20C13.7498 21.7262 14.4479 23.287 15.5803 24.4194C16.7127 25.5518 18.2735 26.25 19.9998 26.25C21.726 26.25 23.2868 25.5518 24.4192 24.4194C25.5516 23.287 26.2498 21.7262 26.2498 20C26.2498 18.2738 25.5516 16.713 24.4192 15.5806C23.2868 14.4482 21.726 13.75 19.9998 13.75Z" fill="white"/>
</svg>
