<svg width="26" height="27" viewBox="0 0 26 27" fill="none" xmlns="http://www.w3.org/2000/svg">
<g clip-path="url(#clip0_1819_2336)">
<path d="M8.75712 9.25736C7.67133 10.3431 6.99976 11.8431 6.99976 13.5H0.999756C0.999756 10.1863 2.3429 7.18629 4.51448 5.01472L8.75712 9.25736Z" fill="#656929"/>
<path d="M17.2424 9.25736C16.1566 8.17157 14.6566 7.5 12.9998 7.5V1.5C16.3135 1.5 19.3135 2.84315 21.485 5.01472L17.2424 9.25736Z" fill="#656929"/>
<path d="M17.2424 17.7426C18.3282 16.6569 18.9998 15.1569 18.9998 13.5H24.9998C24.9998 16.8137 23.6566 19.8137 21.485 21.9853L17.2424 17.7426Z" fill="#656929"/>
<path d="M8.75712 17.7426C9.8429 18.8284 11.3429 19.5 12.9998 19.5V25.5C9.68605 25.5 6.68605 24.1569 4.51448 21.9853L8.75712 17.7426Z" fill="#656929"/>
<path fill-rule="evenodd" clip-rule="evenodd" d="M5.96067 5.0467L8.80765 7.89368C9.7236 7.2079 10.8139 6.74076 11.9998 6.57097V2.5448C9.71287 2.75072 7.62851 3.65614 5.96067 5.0467ZM13.9998 2.5448V6.57097C15.1856 6.74076 16.2759 7.2079 17.1919 7.89368L20.0388 5.0467C18.371 3.65614 16.2866 2.75072 13.9998 2.5448ZM21.4531 6.46091L18.6061 9.3079C19.2919 10.2238 19.759 11.3142 19.9288 12.5H23.955C23.749 10.2131 22.8436 8.12876 21.4531 6.46091ZM23.955 14.5H19.9288C19.759 15.6858 19.2919 16.7762 18.6061 17.6921L21.4531 20.5391C22.8436 18.8712 23.749 16.7869 23.955 14.5ZM20.0388 21.9533L17.1919 19.1063C16.2759 19.7921 15.1856 20.2592 13.9998 20.429V24.4552C16.2866 24.2493 18.371 23.3439 20.0388 21.9533ZM11.9998 24.4552V20.429C10.8139 20.2592 9.7236 19.7921 8.80765 19.1063L5.96067 21.9533C7.62851 23.3439 9.71287 24.2493 11.9998 24.4552ZM4.54645 20.5391L7.39344 17.6921C6.70765 16.7762 6.24052 15.6858 6.07073 14.5H2.04456C2.25048 16.7869 3.1559 18.8712 4.54645 20.5391ZM2.04456 12.5H6.07073C6.24052 11.3142 6.70765 10.2238 7.39344 9.3079L4.54645 6.46091C3.1559 8.12876 2.25048 10.2131 2.04456 12.5ZM3.80737 4.30761C6.15881 1.95617 9.41018 0.5 12.9998 0.5C16.5893 0.5 19.8407 1.95617 22.1921 4.30761C24.5436 6.65905 25.9998 9.91043 25.9998 13.5C25.9998 17.0896 24.5436 20.3409 22.1921 22.6924C19.8407 25.0438 16.5893 26.5 12.9998 26.5C9.41018 26.5 6.15881 25.0438 3.80737 22.6924C1.45593 20.3409 -0.000244141 17.0896 -0.000244141 13.5C-0.000244141 9.91043 1.45593 6.65905 3.80737 4.30761ZM12.9998 8.5C11.6188 8.5 10.3701 9.05855 9.46422 9.96447C8.5583 10.8704 7.99976 12.119 7.99976 13.5C7.99976 14.881 8.5583 16.1296 9.46422 17.0355C10.3701 17.9415 11.6188 18.5 12.9998 18.5C14.3807 18.5 15.6294 17.9415 16.5353 17.0355C17.4412 16.1296 17.9998 14.881 17.9998 13.5C17.9998 12.119 17.4412 10.8704 16.5353 9.96447C15.6294 9.05855 14.3807 8.5 12.9998 8.5Z" fill="#E0F16F"/>
</g>
<defs>
<clipPath id="clip0_1819_2336">
<rect width="26.0002" height="27" fill="white" transform="translate(-0.000244141)"/>
</clipPath>
</defs>
</svg>
