<svg width="64" height="64" viewBox="0 0 64 64" fill="none" xmlns="http://www.w3.org/2000/svg">
<g filter="url(#filter0_iiii_1886_209)">
<path d="M64 32.0009C64 49.6739 49.6729 64 32 64C14.3271 64 0 49.6739 0 32.0009C0 14.3271 14.3271 0.000946045 32 0.000946045C49.6729 0.000946045 64 14.3271 64 32.0009Z" fill="#8EC2FF"/>
<path d="M6.84917 21.0134L5.7683 22.4542L5.16771 25.3359L4.44775 27.617L4.68742 30.3794L5.64799 32.7808L6.84917 33.6211L8.53064 33.2611L9.85119 32.3005L10.3315 33.2611L11.292 33.8607L12.1323 34.702V36.0225L12.012 37.5837L13.8138 40.3451L14.2941 43.3471L14.0534 44.7879L15.7349 48.6302L18.8563 52.5928L21.018 53.433L22.3386 53.3127L23.8997 50.9113L24.74 47.7899L26.3012 46.3491L27.6217 45.7485L27.382 42.1459L27.2617 38.9042L28.102 37.704H29.7835L30.9837 33.5008L26.5408 27.978L25.9412 26.1762L25.1 23.1751L25.5803 22.3339L26.6611 25.0963L28.2223 26.2965L29.1829 27.8577L33.0251 29.6585L34.826 28.8182L36.8674 27.7374L38.188 26.4168L36.0272 24.616L31.824 26.8971L34.466 23.0548L36.6268 23.1751L37.1071 24.1357H41.5499L44.7926 26.1762L47.4337 32.9002L48.5145 32.3005L49.1151 28.6979L50.4357 26.4168L51.8765 25.3359L52.2365 27.1368L53.5571 28.4583L54.7582 28.8182L55.9585 31.2197L56.0788 32.6605L56.6794 29.6585L56.3194 27.3774L55.4782 25.8162L57.8806 23.4148C57.8806 23.4148 56.1991 11.888 41.6703 5.76459C38.3083 5.40367 36.1465 6.72516 36.1465 6.72516C36.1465 6.72516 34.9974 7.51332 31.824 6.24488C31.2243 6.00426 29.6631 8.40568 29.6631 8.40568L28.5823 7.44511L28.9422 6.12457L24.5003 5.88395L20.4174 7.20544L21.018 8.40568L23.6591 7.80509L24.38 8.6463L22.8189 10.2065H21.378L17.5357 11.2874L17.0555 9.24594L15.6146 10.4471L15.9746 12.1276L14.4134 11.7677L14.2941 13.8091L12.1323 14.4097L11.0514 15.8506L12.1323 16.0902L13.9331 14.7697L16.9351 13.6888L17.8957 16.3308L18.736 15.9699L18.016 13.6888L18.9766 13.4491L19.6965 15.7303L19.9372 17.4108L20.7774 16.4502L21.018 15.6099L22.4589 15.9699L23.6591 17.5311L25.1 17.8911L26.3012 17.7717L25.7006 19.8131L24.38 21.4937L21.2577 20.4128L18.2557 19.6928L16.6955 20.4128L16.5752 19.4522L15.014 18.9719L15.4943 17.2914L8.41034 18.612L7.93005 21.0134H6.84917Z" fill="#006938"/>
<path d="M33.023 45.6282L31.7025 48.8699L30.021 50.6717L28.7005 50.1914L29.7814 45.9882L31.1019 45.8688L32.3031 44.6676L33.023 45.6282Z" fill="#006938"/>
<path d="M19.4575 58.4765C19.4575 58.4765 28.8236 64.1196 41.9115 58.8365C37.7083 58.4765 33.6264 57.6362 33.6264 57.6362L30.0238 58.4765L26.6618 58.3562L23.9004 57.5159L20.7781 57.8759L19.4575 58.4765Z" fill="#006938"/>
<path fill-rule="evenodd" clip-rule="evenodd" d="M44.7614 61.3541C56.0838 56.4252 64 45.1377 64 32.0008C64 16.0495 52.3297 2.82521 37.062 0.398926L31.574 31.586L44.7614 61.3541Z" fill="#ED2E2E"/>
<path d="M36.0449 24.6951L32.5056 26.6158L32.0352 29.2865L33.0331 29.755L34.8408 28.9111L36.8879 27.8276L38.2138 26.5018L36.0449 24.6951ZM40.5461 5.71924C37.845 5.71924 36.1656 6.74568 36.1656 6.74568C36.1656 6.74568 36.1115 6.78274 35.9955 6.82741L32.6529 25.7852L34.4787 23.1288L36.6475 23.2495L37.1293 24.2132H41.5867L44.839 26.2613L47.4888 33.0073L48.5732 32.4048L49.1757 28.7913L50.5006 26.5018L51.9462 25.4183L52.3083 27.2251L53.6332 28.5499L54.8373 28.9111L56.0424 31.3204L56.1631 32.7659L56.7647 29.755L56.4036 27.4655L55.5606 25.9002L57.9699 23.4909C57.9699 23.4909 56.2829 11.9254 41.7065 5.78197C41.3016 5.73825 40.9148 5.71924 40.5461 5.71924Z" fill="#CC140A"/>
<path d="M55.3192 32.6452L54.4762 34.9338L55.3192 39.1508L56.5243 39.9938C56.5243 39.9938 57.5394 41.6855 58.1505 41.6855C58.1714 41.6855 58.1913 41.6836 58.2104 41.6798C58.8129 41.5601 59.5352 34.3322 59.5352 34.3322L57.8492 34.5727L56.8855 34.6934L56.1622 32.7659L55.3192 32.6452Z" fill="#CC140A"/>
<path d="M40.6262 56.1104L26.6392 27.7859L29.741 25.8453L43.7281 54.1698L40.6262 56.1104Z" fill="#FCFCFC"/>
<path d="M28.2214 37.7152L34.3999 13.0761L37.8059 14.0981L31.6274 38.7373L28.2214 37.7152Z" fill="#FCFCFC"/>
</g>
<defs>
<filter id="filter0_iiii_1886_209" x="-1.0169" y="-1.47816" width="65.9414" height="67.2346" filterUnits="userSpaceOnUse" color-interpolation-filters="sRGB">
<feFlood flood-opacity="0" result="BackgroundImageFix"/>
<feBlend mode="normal" in="SourceGraphic" in2="BackgroundImageFix" result="shape"/>
<feColorMatrix in="SourceAlpha" type="matrix" values="0 0 0 0 0 0 0 0 0 0 0 0 0 0 0 0 0 0 127 0" result="hardAlpha"/>
<feOffset dx="0.924459" dy="1.75647"/>
<feGaussianBlur stdDeviation="2.49604"/>
<feComposite in2="hardAlpha" operator="arithmetic" k2="-1" k3="1"/>
<feColorMatrix type="matrix" values="0 0 0 0 1 0 0 0 0 1 0 0 0 0 1 0 0 0 0.5 0"/>
<feBlend mode="normal" in2="shape" result="effect1_innerShadow_1886_209"/>
<feColorMatrix in="SourceAlpha" type="matrix" values="0 0 0 0 0 0 0 0 0 0 0 0 0 0 0 0 0 0 127 0" result="hardAlpha"/>
<feOffset dy="-0.369784"/>
<feGaussianBlur stdDeviation="0.184892"/>
<feComposite in2="hardAlpha" operator="arithmetic" k2="-1" k3="1"/>
<feColorMatrix type="matrix" values="0 0 0 0 0 0 0 0 0 0 0 0 0 0 0 0 0 0 0.25 0"/>
<feBlend mode="normal" in2="effect1_innerShadow_1886_209" result="effect2_innerShadow_1886_209"/>
<feColorMatrix in="SourceAlpha" type="matrix" values="0 0 0 0 0 0 0 0 0 0 0 0 0 0 0 0 0 0 127 0" result="hardAlpha"/>
<feOffset dx="-1.0169" dy="-1.47913"/>
<feGaussianBlur stdDeviation="2.04305"/>
<feComposite in2="hardAlpha" operator="arithmetic" k2="-1" k3="1"/>
<feColorMatrix type="matrix" values="0 0 0 0 0 0 0 0 0 0 0 0 0 0 0 0 0 0 0.25 0"/>
<feBlend mode="normal" in2="effect2_innerShadow_1886_209" result="effect3_innerShadow_1886_209"/>
<feColorMatrix in="SourceAlpha" type="matrix" values="0 0 0 0 0 0 0 0 0 0 0 0 0 0 0 0 0 0 127 0" result="hardAlpha"/>
<feOffset dy="0.369784"/>
<feGaussianBlur stdDeviation="0.184892"/>
<feComposite in2="hardAlpha" operator="arithmetic" k2="-1" k3="1"/>
<feColorMatrix type="matrix" values="0 0 0 0 1 0 0 0 0 1 0 0 0 0 1 0 0 0 0.25 0"/>
<feBlend mode="normal" in2="effect3_innerShadow_1886_209" result="effect4_innerShadow_1886_209"/>
</filter>
</defs>
</svg>
