<svg width="11" height="11" viewBox="0 0 11 11" fill="none" xmlns="http://www.w3.org/2000/svg">
<g clip-path="url(#clip0_1565_8170)">
<path fill-rule="evenodd" clip-rule="evenodd" d="M5.72221 5.80973C5.70821 6.61313 4.9744 6.75955 4.96326 7.16048C4.95676 7.43728 5.01319 7.70517 5.06414 7.97374C5.07782 8.04568 5.07337 8.08576 4.9889 8.10906C4.70745 8.18785 4.53886 8.3814 4.4667 8.66196C4.42019 8.84352 4.38291 9.02748 4.28408 9.1902C4.20235 9.32552 4.09257 9.40842 3.92568 9.38649C3.90551 9.38375 3.88362 9.38307 3.86652 9.37416C3.61106 9.2433 3.4151 9.04838 3.25335 8.81269C3.05411 8.52421 2.88454 8.21627 2.74721 7.89358C2.72749 7.84921 2.71791 7.80099 2.71917 7.75244C2.72943 7.34444 2.62684 6.97002 2.37856 6.64115C2.32076 6.5651 2.3683 6.48665 2.37685 6.41163C2.38745 6.30989 2.39019 6.21088 2.36248 6.11222C2.34333 6.04371 2.30298 5.99746 2.22672 5.98821C2.1166 5.9752 2.03589 5.91901 2.00853 5.80973C1.9887 5.72855 1.95313 5.75527 1.90868 5.7813C1.8266 5.82892 1.75 5.87654 1.64535 5.88681C1.42169 5.90908 1.2531 5.71964 1.19906 5.55384C1.0715 5.16399 1.078 4.77792 1.20864 4.39116C1.24626 4.27982 1.26917 4.16266 1.30747 4.05201C1.35056 3.92938 1.40938 3.81496 1.5431 3.76357C1.58995 3.74507 1.59884 3.69814 1.62038 3.6584C1.67066 3.56694 1.68468 3.45629 1.79445 3.39702C2.027 3.27027 2.28451 3.24561 2.53655 3.19765C2.65061 3.17589 2.76592 3.16001 2.88608 3.1432C2.95201 3.13398 3.00764 3.1965 2.98763 3.26C2.93667 3.41415 2.93599 3.41518 3.08988 3.47581C3.14391 3.49705 3.20273 3.50322 3.20581 3.58544C3.20752 3.63203 3.24617 3.60599 3.26771 3.59332C3.42468 3.4974 3.5837 3.51007 3.74512 3.5803C3.90722 3.65052 4.06897 3.72075 4.2321 3.78858C4.27656 3.80742 4.32307 3.82318 4.37026 3.8338C4.52347 3.86806 4.59357 3.83483 4.66744 3.69711C4.7331 3.57447 4.78132 3.44498 4.81552 3.30967C4.82886 3.2552 4.81552 3.23088 4.75636 3.2343C4.69412 3.23773 4.63153 3.23773 4.56929 3.2391C4.36 3.24252 4.2362 3.15174 4.1743 2.94723C4.14216 2.84138 4.05461 2.86262 3.97698 2.85816C3.89901 2.85371 3.88807 2.89653 3.88567 2.96162C3.8838 3.04105 3.75226 3.01521 3.72734 2.93977C3.68754 2.81926 3.63449 2.7096 3.57926 2.60089C3.56797 2.57931 3.55908 2.55636 3.54711 2.53546C3.50778 2.4692 3.40107 2.51783 3.43836 2.59336C3.47666 2.67146 3.51086 2.75094 3.55326 2.82665C3.59533 2.90064 3.5454 2.92531 3.49581 2.95374C3.43357 2.98971 3.41921 2.94689 3.40143 2.90064C3.36039 2.79376 3.31388 2.68893 3.27523 2.58137C3.2513 2.51457 3.21607 2.48819 3.14357 2.50703C2.96677 2.55259 2.80022 2.61494 2.6648 2.7434C2.57657 2.82802 2.47876 2.9003 2.36009 2.93593C2.1534 2.99686 2.25536 2.72479 2.33923 2.65057C2.4001 2.59678 2.46987 2.54917 2.54647 2.53546C2.68668 2.50977 2.75063 2.42447 2.7862 2.29806C2.81356 2.20077 2.85631 2.12575 2.98455 2.17131C3.18072 2.24061 3.57195 2.00658 3.72665 1.9089C3.92493 1.78414 4.47541 2.01705 4.46841 1.64376C4.46841 1.53996 4.42395 1.49748 4.32101 1.51427C4.21774 1.53139 4.12198 1.57353 4.02554 1.61155C3.95099 1.64067 3.88362 1.62937 3.81556 1.59511C3.72255 1.54818 3.71468 1.50262 3.79163 1.42999C3.94278 1.28714 4.12608 1.21212 4.32751 1.17307C4.57818 1.12442 4.83091 1.12579 5.08397 1.13333C5.23045 1.13799 5.35784 1.22282 5.29737 1.38135C5.27343 1.44233 5.22898 1.50878 5.31276 1.55332C5.41275 1.60658 5.51225 1.54126 5.57027 1.44438C5.67389 1.26967 5.79872 1.19568 5.98612 1.26522C6.31693 1.38859 6.61496 1.04216 6.52718 1.44438C6.24001 2.76029 5.75444 3.9589 5.72221 5.80973ZM5.44887 8.88703C5.33089 8.88703 5.26146 8.80618 5.28232 8.69862C5.31755 8.52219 5.36337 8.34783 5.41023 8.17449C5.43314 8.08987 5.50222 8.0563 5.58566 8.05356C5.68313 8.05013 5.76589 8.02376 5.82915 7.93948C5.87635 7.87645 5.93414 7.89358 5.97313 7.95422C6.00391 8.00149 6.01451 8.05527 5.99809 8.11385C5.92696 8.37318 5.80521 8.6027 5.61302 8.79317C5.55967 8.84592 5.49948 8.88395 5.44887 8.88703Z" fill="white" fill-opacity="0.6"/>
<path fill-rule="evenodd" clip-rule="evenodd" d="M5.99472 5.3508C5.97374 5.39624 5.84401 5.0478 5.83615 4.99836C5.80687 4.81406 5.74212 4.63144 5.78129 4.44428C5.97451 3.51969 6.08438 2.63004 6.28102 1.70579C6.41268 1.08366 6.8671 0.490694 7.3929 0.848347C7.42467 0.869955 7.45795 0.893232 7.49287 0.918276C7.59089 0.988597 7.6925 1.05414 7.79765 1.11327C8.57184 1.5486 9.23912 2.08247 9.73067 2.84784C9.82074 2.98716 9.9929 3.15364 10.164 3.21515C10.2747 3.25384 10.1855 3.75522 10.2303 3.85739C10.2679 3.94304 10.2491 4.00915 10.1841 4.07218C10.0795 4.17393 9.97998 4.28081 9.87533 4.38221C9.83122 4.42572 9.82198 4.46614 9.85584 4.51958C10.0388 4.80802 10.0549 5.141 10.101 5.46541C10.1115 5.53661 10.0049 5.55048 9.96555 5.49021C9.93482 5.44309 9.9094 5.39587 9.89722 5.34037C9.87825 5.24877 9.8503 5.15927 9.81378 5.07317C9.74812 4.92244 9.64791 4.8207 9.4735 4.80939C9.29222 4.79818 9.23891 4.53956 9.23036 4.39454C9.22454 4.32329 9.20129 4.30376 9.13494 4.35035C8.89453 4.52129 8.74098 4.74636 8.69139 5.03891C8.66754 5.16482 8.65382 5.29243 8.65035 5.42054C8.65035 5.47535 8.49509 5.6158 8.44072 5.60724C8.399 5.60073 8.39729 5.55756 8.386 5.52844C8.26528 5.22596 8.14525 4.92313 8.02761 4.61927C7.99596 4.53059 7.93628 4.45469 7.85764 4.40311C7.76189 4.34144 7.66442 4.27978 7.57482 4.20853C7.52478 4.16632 7.4669 4.13446 7.40451 4.11476C7.34211 4.09507 7.27645 4.08793 7.2113 4.09377C7.05946 4.10541 6.90659 4.09651 6.75407 4.10062C6.69046 4.10233 6.6501 4.08554 6.62685 4.02148C6.61317 3.98277 6.61761 3.91871 6.54135 3.92865C6.46851 3.9379 6.20412 3.92826 6.12912 4.20853C5.98113 4.76155 6.08997 4.993 5.99771 5.34279C5.99716 5.34487 5.99562 5.34884 5.99472 5.3508ZM10.4957 5.91418C10.4765 6.29717 10.434 6.78187 10.3245 7.06175C10.304 7.1354 10.154 7.1021 10.101 7.06168C10.0371 7.01235 10.0487 6.96347 10.0405 6.87474C10.0381 6.80473 9.99053 6.73974 9.92458 6.71647C9.8449 6.68564 9.81172 6.61713 9.79497 6.54005C9.74812 6.32389 9.704 6.1067 9.65783 5.8902C9.63545 5.81126 9.64921 5.70127 9.75222 5.73536C9.86747 5.77372 9.96869 5.79565 10.0241 5.92034C10.0439 5.96385 10.1134 5.96762 10.164 5.93062C10.217 5.89123 10.27 5.85286 10.3247 5.81586C10.4176 5.75405 10.5092 5.80377 10.4957 5.91418Z" fill="white" fill-opacity="0.6"/>
<circle cx="5.50009" cy="5.50009" r="5.10897" stroke="white" stroke-width="0.5"/>
<path d="M6.48718 0.422852L5.5 5.49977L9.16667 9.16644" stroke="white"/>
</g>
<defs>
<clipPath id="clip0_1565_8170">
<rect width="11" height="11" fill="white"/>
</clipPath>
</defs>
</svg>
