<svg width="20" height="31" viewBox="0 0 20 31" fill="none" xmlns="http://www.w3.org/2000/svg">
<g clip-path="url(#clip0_1819_2330)">
<path d="M6.1212 10.7828C4.74858 9.87812 3.7813 8.72386 3.56304 7.00247C2.38589 8.81107 0.655098 13.3673 3.71922 15.7139C5.15543 14.3416 7.10185 13.4988 9.24512 13.4988C11.6926 13.4988 13.8833 14.5978 15.3508 16.3293C17.8852 14.3549 19 11 17.5 7.5C16.2643 9.84692 15.046 8.74193 13 10C13.4816 6.62873 12.7065 4.51158 7.88164 2.52148C8.92086 7.44872 6.901 8.19065 6.1212 10.7828Z" fill="#5C2625"/>
<path fill-rule="evenodd" clip-rule="evenodd" d="M6.51228 0.875L8.26286 1.59706C10.7454 2.62104 12.381 3.75133 13.2828 5.21947C13.901 6.22613 14.1222 7.30582 14.1231 8.4456C14.4324 8.36219 14.71 8.30887 14.9428 8.26416C15.0852 8.23681 15.2109 8.21267 15.3168 8.18684C15.6001 8.11772 15.7849 8.0409 15.9535 7.9112C16.128 7.77696 16.3521 7.53363 16.6151 7.03415L17.5925 5.17759L18.4191 7.10611C20.1045 11.0387 18.8451 14.8746 15.9653 17.1182L15.2083 17.7079L14.5878 16.9759C13.3022 15.459 11.3863 14.4988 9.24502 14.4988C7.36923 14.4988 5.66758 15.2353 4.40997 16.4369L3.7909 17.0285L3.11111 16.5079C1.1968 15.0418 0.836865 12.8979 1.05753 11.0386C1.27615 9.19649 2.07139 7.46096 2.72483 6.457L4.21206 4.17199L4.555 6.87671C4.67354 7.81158 5.06375 8.54398 5.69699 9.17175C5.79633 8.97311 5.89748 8.78579 5.99631 8.60718C6.05544 8.50032 6.11263 8.39833 6.16795 8.29969C6.39657 7.89202 6.59312 7.54156 6.76144 7.14069C7.14181 6.23479 7.3885 5.02944 6.90307 2.72788L6.51228 0.875ZM9.14184 4.21499C9.26121 5.78874 9.01974 6.92836 8.60548 7.91496C8.38873 8.43119 8.12451 8.90126 7.89171 9.31544C7.84151 9.40475 7.79277 9.49146 7.74628 9.57547C7.47388 10.0678 7.24261 10.5261 7.07871 11.0709L6.69191 12.3567L5.57079 11.6178C4.72868 11.0628 3.98697 10.3957 3.44531 9.55986C3.26053 10.1008 3.11349 10.6853 3.04359 11.2743C2.90386 12.4517 3.07713 13.5312 3.75492 14.3668C5.2739 13.1961 7.17881 12.4988 9.24502 12.4988C11.6301 12.4988 13.7991 13.4275 15.4088 14.9407C16.7578 13.564 17.4407 11.6573 17.0815 9.5643C16.6399 9.88013 16.1944 10.0314 15.7908 10.1299C15.5686 10.1841 15.3678 10.2238 15.178 10.2613C14.6183 10.372 14.155 10.4637 13.5237 10.8519L11.7086 11.9679L12.01 9.8586C12.2382 8.26064 12.1344 7.17119 11.5785 6.26618C11.1602 5.58503 10.4244 4.90786 9.14184 4.21499Z" fill="#FF6B6B"/>
<path fill-rule="evenodd" clip-rule="evenodd" d="M2.28379 20.6887C2.38176 20.768 2.5453 20.8704 2.79411 20.9829C3.0825 21.1134 3.44507 21.2395 3.87478 21.3553C3.89267 19.3314 4.29554 17.4424 4.98735 15.934C3.51701 17.0592 2.5058 18.7541 2.28379 20.6887ZM9.23779 12.4963C4.48295 12.4963 0.590061 16.1829 0.260368 20.8545C0.245395 21.0666 0.237793 21.2806 0.237793 21.4963C0.237793 26.4668 4.26723 30.4963 9.23779 30.4963C14.2084 30.4963 18.2378 26.4668 18.2378 21.4963C18.2378 21.2806 18.2302 21.0666 18.2152 20.8545C17.8855 16.1829 13.9926 12.4963 9.23779 12.4963ZM9.23779 14.4963C8.5703 14.4963 7.74587 15.0061 7.03013 16.3183C6.33502 17.5927 5.87416 19.4215 5.87416 21.4963C5.87416 21.5782 5.87488 21.6598 5.87631 21.7411C6.88348 21.8746 8.02444 21.9508 9.23779 21.9508C10.1664 21.9508 11.0534 21.9062 11.871 21.8252C11.8731 21.7162 11.8742 21.6065 11.8742 21.4963C11.8742 19.3963 11.4852 17.5435 10.8987 16.2532C10.2712 14.8727 9.60867 14.4963 9.23779 14.4963ZM13.8741 21.5273C13.8741 21.517 13.8742 21.5066 13.8742 21.4963C13.8742 19.178 13.4491 17.0308 12.7195 15.4256C12.7188 15.4241 12.7181 15.4226 12.7174 15.421C14.6001 16.5017 15.9328 18.4321 16.1918 20.6887C16.1869 20.6926 16.1818 20.6967 16.1765 20.7009C16.0463 20.8024 15.8263 20.9289 15.4944 21.0627C15.0701 21.2337 14.5234 21.3926 13.8741 21.5273ZM11.704 23.8489C10.922 23.9153 10.0938 23.9508 9.23779 23.9508C8.1213 23.9508 7.05119 23.8905 6.06858 23.7796C6.29466 25.0656 6.70237 26.1664 7.20981 26.983C7.88885 28.0757 8.62724 28.4963 9.23779 28.4963C9.56887 28.4963 10.1424 28.2039 10.7314 27.0819C11.1616 26.2626 11.5094 25.1511 11.704 23.8489ZM12.7173 27.5716C13.2252 26.456 13.5829 25.0846 13.7559 23.5862C14.6346 23.4309 15.4255 23.2279 16.08 22.9809C15.6561 24.9441 14.4087 26.6008 12.7173 27.5716ZM4.98735 27.0586C4.50474 26.0063 4.16445 24.7723 3.99565 23.443C3.40791 23.3133 2.86793 23.1592 2.39554 22.9809C2.75215 24.6322 3.69137 26.0667 4.98735 27.0586ZM2.20001 20.6084C2.19947 20.6076 2.19922 20.6072 2.19924 20.6072Z" fill="#FF6B6B"/>
</g>
<defs>
<clipPath id="clip0_1819_2330">
<rect width="20" height="31" fill="white"/>
</clipPath>
</defs>
</svg>
