<svg width="40" height="40" viewBox="0 0 40 40" fill="none" xmlns="http://www.w3.org/2000/svg">
<path d="M16.4016 13.4785C14.6858 12.3476 13.4767 10.9048 13.2039 8.75309C11.7325 11.0138 9.56899 16.7091 13.3992 19.6424C15.1944 17.927 17.6274 16.8735 20.3065 16.8735C23.3658 16.8735 26.1043 18.2473 27.9386 20.4116C31.1066 17.9436 32.5001 13.75 30.6251 9.375C29.0805 12.3087 27.5576 10.9274 25.0001 12.5C25.6021 8.28591 24.6332 5.63948 18.6022 3.15186C19.9012 9.3109 17.3764 10.2383 16.4016 13.4785Z" fill="#DB4744"/>
<path fill-rule="evenodd" clip-rule="evenodd" d="M16.8905 1.09375L19.0787 1.99633C22.1819 3.2763 24.2264 4.68916 25.3536 6.52434C26.1264 7.78266 26.4028 9.13227 26.404 10.557C26.7907 10.4527 27.1376 10.3861 27.4287 10.3302C27.6067 10.296 27.7637 10.2658 27.8961 10.2336C28.2502 10.1472 28.4812 10.0511 28.692 9.889C28.9102 9.7212 29.1902 9.41703 29.5189 8.79269L30.7408 6.47199L31.7739 8.88263C33.8807 13.7984 32.3065 18.5933 28.7067 21.3977L27.7604 22.1349L26.9849 21.2198C25.3779 19.3238 22.983 18.1235 20.3064 18.1235C17.9617 18.1235 15.8346 19.0441 14.2626 20.5462L13.4887 21.2856L12.639 20.6348C10.2461 18.8022 9.7962 16.1224 10.072 13.7982C10.3453 11.4956 11.3394 9.3262 12.1562 8.07125L14.0152 5.21498L14.4439 8.59589C14.592 9.76448 15.0798 10.68 15.8714 11.4647C15.9955 11.2164 16.122 10.9822 16.2455 10.759C16.3194 10.6254 16.3909 10.4979 16.4601 10.3746C16.7458 9.86503 16.9915 9.42694 17.2019 8.92586C17.6774 7.79349 17.9857 6.2868 17.379 3.40985L16.8905 1.09375ZM20.1774 5.26874C20.3266 7.23592 20.0248 8.66044 19.507 9.89371C19.236 10.539 18.9058 11.1266 18.6148 11.6443C18.552 11.7559 18.4911 11.8643 18.433 11.9693C18.0925 12.5847 17.8034 13.1576 17.5985 13.8386L17.115 15.4459L15.7136 14.5222C14.661 13.8284 13.7338 12.9946 13.0568 11.9498C12.8258 12.626 12.642 13.3567 12.5546 14.0929C12.3799 15.5646 12.5965 16.914 13.4438 17.9585C15.3425 16.4951 17.7236 15.6235 20.3064 15.6235C23.2878 15.6235 25.999 16.7844 28.0111 18.6759C29.6974 16.9549 30.551 14.5716 30.102 11.9554C29.55 12.3502 28.9931 12.5392 28.4886 12.6623C28.2108 12.7301 27.9598 12.7797 27.7227 12.8267C27.023 12.9651 26.4439 13.0796 25.6547 13.5648L23.3859 14.9599L23.7626 12.3233C24.0479 10.3258 23.9181 8.96399 23.2233 7.83273C22.7003 6.98129 21.7806 6.13483 20.1774 5.26874Z" fill="white"/>
<path fill-rule="evenodd" clip-rule="evenodd" d="M11.6049 25.8609C11.7273 25.9601 11.9318 26.088 12.2428 26.2287C12.6033 26.3917 13.0565 26.5494 13.5936 26.6942C13.616 24.1642 14.1195 21.803 14.9843 19.9176C13.1464 21.3241 11.8824 23.4427 11.6049 25.8609ZM20.2974 15.6204C14.3538 15.6204 9.4877 20.2287 9.07558 26.0681C9.05687 26.3333 9.04736 26.6008 9.04736 26.8704C9.04736 33.0836 14.0842 38.1204 20.2974 38.1204C26.5106 38.1204 31.5474 33.0836 31.5474 26.8704C31.5474 26.6008 31.5379 26.3333 31.5191 26.0681C31.107 20.2287 26.2409 15.6204 20.2974 15.6204ZM20.2974 18.1204C19.463 18.1204 18.4325 18.7576 17.5378 20.3978C16.6689 21.9908 16.0928 24.2769 16.0928 26.8704C16.0928 26.9728 16.0937 27.0748 16.0955 27.1764C17.3545 27.3433 18.7807 27.4385 20.2974 27.4385C21.4581 27.4385 22.5669 27.3827 23.5888 27.2815C23.5915 27.1452 23.5928 27.0082 23.5928 26.8704C23.5928 24.2454 23.1067 21.9294 22.3735 20.3165C21.5891 18.5908 20.761 18.1204 20.2974 18.1204ZM26.0928 26.9092C26.0928 26.8962 26.0928 26.8833 26.0928 26.8704C26.0928 23.9725 25.5615 21.2884 24.6494 19.282C24.6486 19.2801 24.6477 19.2782 24.6468 19.2763C27.0002 20.6271 28.6662 23.0401 28.9899 25.8609C28.9838 25.8658 28.9774 25.8708 28.9707 25.8761C28.8081 26.0029 28.533 26.1612 28.1182 26.3284C27.5877 26.5422 26.9044 26.7408 26.0928 26.9092ZM23.3801 29.8112C22.4027 29.8942 21.3674 29.9385 20.2974 29.9385C18.9018 29.9385 17.5641 29.8631 16.3359 29.7244C16.6184 31.332 17.1281 32.708 17.7624 33.7288C18.6112 35.0947 19.5342 35.6204 20.2974 35.6204C20.7112 35.6204 21.4282 35.2548 22.1644 33.8524C22.7021 32.8282 23.1369 31.4389 23.3801 29.8112ZM24.6468 34.4645C25.2816 33.07 25.7287 31.3558 25.945 29.4828C27.0434 29.2887 28.032 29.0349 28.8502 28.7261C28.3202 31.1801 26.761 33.251 24.6468 34.4645ZM14.9843 33.8232C14.381 32.5078 13.9557 30.9654 13.7447 29.3037C13.01 29.1417 12.335 28.949 11.7445 28.7261C12.1903 30.7903 13.3643 32.5834 14.9843 33.8232ZM11.5001 25.7605C11.4995 25.7595 11.4992 25.759 11.4992 25.759Z" fill="white"/>
</svg>
