<svg width="24" height="24" viewBox="0 0 24 24" fill="none" xmlns="http://www.w3.org/2000/svg">
<path d="M17.2218 10.44C17.6196 11.6173 17.0153 12.8847 15.8721 13.271C15.0842 13.5372 14.4221 12.6976 14.0244 11.5203C13.6266 10.343 13.6438 9.27394 14.4317 9.00774C15.5749 8.6215 16.8241 9.26275 17.2218 10.44Z" fill="#0D1723"/>
<path d="M19.7791 4.03516L19.0291 4.78516" stroke="#0D1723" stroke-width="1.5" stroke-linecap="square"/>
<path d="M6.09641 18.1807L6.12961 18.93H6.12962L6.09641 18.1807ZM3.43318 15.08L2.72198 15.3181H2.72198L3.43318 15.08ZM3.68716 10.9848L3.92918 11.6947H3.92918L3.68716 10.9848ZM4.34136 10.9646L4.22788 11.706L4.53911 11.7536L4.79108 11.5648L4.34136 10.9646ZM15.8862 18.5084C16.3004 18.5084 16.6362 18.1726 16.6362 17.7584C16.6362 17.3442 16.3004 17.0084 15.8862 17.0084V18.5084ZM5.05928 14.4384L5.29935 15.149L6.72043 14.6688L6.48037 13.9583L5.05928 14.4384ZM12.1807 5.92466C12.5096 5.67289 12.5721 5.20216 12.3203 4.87324C12.0686 4.54432 11.5978 4.48178 11.2689 4.73354L12.1807 5.92466ZM7.54986 17.0084C7.10237 17.0084 6.76002 17.2135 6.61786 17.2836C6.46595 17.3586 6.32374 17.4199 6.06321 17.4314L6.12962 18.93C6.67168 18.9059 7.02375 18.756 7.28169 18.6287C7.54938 18.4966 7.53245 18.5084 7.54986 18.5084V17.0084ZM6.06321 17.4314C6.00181 17.4341 5.70333 17.3635 5.26858 16.8847C4.86691 16.4423 4.44956 15.7534 4.14438 14.8419L2.72198 15.3181C3.0821 16.3937 3.59506 17.273 4.15804 17.893C4.68793 18.4766 5.38842 18.9628 6.12961 18.93L6.06321 17.4314ZM4.14438 14.8419C3.83467 13.9169 3.71851 13.0598 3.75716 12.4367C3.77661 12.1231 3.83292 11.9076 3.89282 11.7802C3.95171 11.6549 3.98131 11.6769 3.92918 11.6947L3.44514 10.2749C2.99023 10.43 2.70353 10.7842 2.53532 11.1421C2.36812 11.4977 2.28655 11.9163 2.26003 12.3438C2.20676 13.2029 2.36639 14.2561 2.72198 15.3181L4.14438 14.8419ZM3.92918 11.6947C3.91954 11.698 3.93833 11.6903 3.99705 11.6885C4.05318 11.6869 4.1303 11.691 4.22788 11.706L4.45484 10.2232C4.13554 10.1744 3.76992 10.1642 3.44514 10.2749L3.92918 11.6947ZM15.8862 17.0084H7.54986V18.5084H15.8862V17.0084ZM6.48037 13.9583C6.05305 12.6935 5.93655 11.4343 6.07725 10.3151L4.58897 10.128C4.4187 11.4823 4.56297 12.9694 5.05928 14.4384L6.48037 13.9583ZM4.79108 11.5648L5.78282 10.8217L4.88339 9.62131L3.89165 10.3644L4.79108 11.5648ZM5.78897 10.8171L12.1807 5.92466L11.2689 4.73354L4.87725 9.62596L5.78897 10.8171Z" fill="#0D1723"/>
<path d="M9 18V20.25C9 20.6642 9.33579 21 9.75 21H11.25C11.6642 21 12 20.6642 12 20.25V18" stroke="#0D1723" stroke-width="1.5" stroke-linecap="square"/>
<path d="M21.4847 9.00051L18.6426 9.96076C18.8 10.4268 18.9301 10.8899 19.0337 11.3445M18.4473 13.985L19.3365 14.2272M22.3394 15.0449L19.3365 14.2272M19.3365 14.2272C19.2769 16.0805 18.6546 17.4774 17.5481 17.8512C15.6841 18.481 13.1519 15.9694 11.8924 12.2414C10.6329 8.51336 11.1229 4.98068 12.9869 4.35091C14.4453 3.85817 16.3128 5.28854 17.6597 7.71998" stroke="#0D1723" stroke-width="1.5" stroke-linecap="square"/>
</svg>
