<svg width="24" height="24" viewBox="0 0 24 24" fill="none" xmlns="http://www.w3.org/2000/svg">
<path fill-rule="evenodd" clip-rule="evenodd" d="M6.75 3H21.75V17.25C21.75 19.3211 20.0711 21 18 21H5.25V19.5H18C19.2426 19.5 20.25 18.4926 20.25 17.25V4.5H8.25V12H6.75V3Z" fill="black"/>
<path fill-rule="evenodd" clip-rule="evenodd" d="M2.25 9H8.25V18C8.25 19.6569 6.90685 21 5.25 21C3.59315 21 2.25 19.6569 2.25 18V9ZM3.75 10.5V18C3.75 18.8284 4.42157 19.5 5.25 19.5C6.07843 19.5 6.75 18.8284 6.75 18V10.5H3.75Z" fill="black"/>
<path fill-rule="evenodd" clip-rule="evenodd" d="M18.75 7.5H9.75V6H18.75V7.5Z" fill="black"/>
<path fill-rule="evenodd" clip-rule="evenodd" d="M18.75 10.5H9.75V9H18.75V10.5Z" fill="black"/>
<path fill-rule="evenodd" clip-rule="evenodd" d="M18.75 13.5H15.75V12H18.75V13.5Z" fill="black"/>
<path fill-rule="evenodd" clip-rule="evenodd" d="M18.75 16.5H15.75V15H18.75V16.5Z" fill="black"/>
<path d="M9.75 12H14.25V18H9.75V12Z" fill="black"/>
</svg>
