<svg width="29" height="26" viewBox="0 0 29 26" fill="none" xmlns="http://www.w3.org/2000/svg">
<path d="M2.87099 11.02C2.87099 11.02 3.25732 11.0814 2.868 11.0223C2.47869 10.9633 1.64649 10.9723 1.41194 11.0516C0.234673 11.4493 0.068496 14.1046 1.04077 16.9824C2.01305 19.8601 3.57274 21.6477 4.75 21.25C4.98455 21.1708 5.69719 20.8381 5.97092 20.555L19.5 20.5L15.5 17.75L12.8569 12.8213L12 8L12.6583 2.86084L6.49272 9.41523C6.49272 9.41523 2.868 11.0223 2.87099 11.02Z" fill="#606060"/>
<path fill-rule="evenodd" clip-rule="evenodd" d="M13.804 12.5013C13.0032 10.1312 12.7764 7.86926 13.015 6.14937C13.2628 4.36324 13.9455 3.48148 14.636 3.24819C15.1743 3.06631 15.9394 3.18952 16.8953 3.89096C17.8372 4.58222 18.8218 5.74349 19.6716 7.27745L20.1561 8.15221L21.9056 7.18307L21.4211 6.30831C20.4749 4.60036 19.3166 3.1871 18.0785 2.27854C16.8543 1.38017 15.4021 0.878287 13.9958 1.35341C13.2453 1.60697 12.6536 2.08553 12.1986 2.70439C12.1385 2.73347 12.0804 2.76904 12.0252 2.81124L3.50705 9.33136L2.4986 10.0869C2.19568 10.0745 1.88247 10.1012 1.59351 10.1997C0.986967 10.4065 0.604701 10.8788 0.380419 11.3559C0.15749 11.8302 0.0487251 12.3883 0.0133759 12.9583C-0.0576596 14.1037 0.155188 15.508 0.629309 16.924C1.10946 18.3581 1.79341 19.5305 2.54404 20.3572C3.25057 21.1354 4.18455 21.7836 5.17282 21.7398C5.89557 21.7078 6.36499 21.5079 6.70892 21.3382C7.0376 21.176 7.04446 21.1764 7.06161 21.1775L7.06647 21.1777H8V25.5001H14V21.1777H18.1816C18.1886 21.1777 18.1956 21.1776 18.2025 21.1775C19.0219 21.4712 19.8762 21.5329 20.7176 21.2486C21.7812 20.8892 22.5332 20.0606 23.0147 19.0578C23.3397 18.381 23.5569 17.5976 23.6764 16.7491L27.488 17.7871L28.0136 15.8574L20.8943 13.9186L20.3688 15.8483L21.7277 16.2184C21.6394 17.0115 21.4589 17.6775 21.2118 18.1921C20.8897 18.8629 20.4891 19.2147 20.0774 19.3538C19.3869 19.5871 18.3093 19.3001 17.029 18.0302C15.7963 16.8074 14.6048 14.8715 13.804 12.5013ZM15.3555 19.1777H7.06647C6.5342 19.1777 6.11348 19.3953 5.89432 19.5087C5.86782 19.5224 5.84426 19.5346 5.82381 19.5447C5.62127 19.6447 5.43165 19.7263 5.08428 19.7417C5.00241 19.7454 4.60443 19.6512 4.02477 19.0128C3.48922 18.4229 2.93275 17.5044 2.52583 16.2891C2.11289 15.0557 1.95801 13.9129 2.00954 13.0821C2.03547 12.6639 2.11056 12.3766 2.19043 12.2067C2.22055 12.1426 2.24493 12.1075 2.25961 12.0898C2.27487 12.0877 2.2978 12.0855 2.3294 12.0846C2.40423 12.0823 2.50707 12.0879 2.63718 12.1078L3.0465 12.1704C3.11107 13.3422 3.34031 14.5512 3.74571 15.7511L4.06579 16.6985L5.96057 16.0583L5.64049 15.1109C5.12203 13.5764 4.94672 12.048 5.06072 10.6608L11.0038 6.11173C10.7667 8.156 11.0636 10.6386 11.9092 13.1415C12.7356 15.5874 13.9668 17.7001 15.3555 19.1777ZM10 21.1777V23.5001H12V21.1777H10Z" fill="white"/>
<path d="M22.372 4.29425L24.7862 1.88003L23.372 0.46582L20.9578 2.88003L22.372 4.29425Z" fill="white"/>
<path d="M26.2737 7.23279L20.5893 9.15329L20.9094 10.1007C21.1086 10.6902 21.2728 11.2748 21.4032 11.8476L21.6252 12.8227L23.5753 12.3787L23.3533 11.4037C23.2789 11.0768 23.1948 10.7472 23.1009 10.4158L26.9138 9.12757L26.2737 7.23279Z" fill="white"/>
<path d="M19.9623 10.4206C20.4926 11.9903 19.6869 13.6803 18.1626 14.1953C17.112 14.5502 16.2294 13.4307 15.699 11.861C15.1687 10.2913 15.1915 8.86587 16.2421 8.51092C17.7664 7.99594 19.4319 8.85095 19.9623 10.4206Z" fill="white"/>
</svg>
