<svg width="40" height="40" viewBox="0 0 40 40" fill="none" xmlns="http://www.w3.org/2000/svg">
<path d="M6.08886 18.1502C6.08886 18.1502 6.57178 18.2268 6.08513 18.153C5.59848 18.0792 4.55823 18.0905 4.26504 18.1896C2.79346 18.6868 2.58574 22.0059 3.80109 25.6031C5.01643 29.2003 6.96604 31.4348 8.43762 30.9376C8.73081 30.8386 9.62162 30.4227 9.96378 30.0689L26.8751 30.0001L21.8751 26.5626L18.5712 20.4017L17.5001 14.3751L18.3229 7.95117L10.616 16.1442C10.616 16.1442 6.08513 18.153 6.08886 18.1502Z" fill="#606060"/>
<path fill-rule="evenodd" clip-rule="evenodd" d="M19.755 20.0014C18.754 17.0387 18.4706 14.2113 18.7688 12.0615C19.0784 9.82881 19.9319 8.72661 20.795 8.43499C21.4679 8.20765 22.4242 8.36166 23.6191 9.23846C24.7966 10.1025 26.0273 11.5541 27.0894 13.4716L27.6952 14.565L29.882 13.3536L29.2763 12.2601C28.0937 10.1252 26.6458 8.35862 25.0981 7.22292C23.5679 6.09996 21.7526 5.47261 19.9948 6.06652C19.0567 6.38347 18.317 6.98167 17.7483 7.75524C17.6731 7.79159 17.6005 7.83606 17.5315 7.88881L6.88382 16.039L5.62325 16.9834C5.2446 16.9679 4.85309 17.0013 4.49189 17.1244C3.73371 17.3829 3.25588 17.9732 2.97552 18.5697C2.69686 19.1625 2.56091 19.8601 2.51672 20.5726C2.42793 22.0044 2.69398 23.7597 3.28664 25.5298C3.88682 27.3224 4.74176 28.7878 5.68006 29.8213C6.56321 30.794 7.73069 31.6042 8.96602 31.5495C9.86947 31.5095 10.4562 31.2596 10.8861 31.0475C11.297 30.8447 11.3056 30.8453 11.327 30.8466L11.3331 30.8469H12.5V36.2499H20V30.8469H25.227C25.2358 30.8469 25.2445 30.8468 25.2532 30.8466C26.2774 31.2138 27.3452 31.2908 28.397 30.9355C29.7266 30.4863 30.6666 29.4505 31.2684 28.197C31.6746 27.3511 31.9461 26.3717 32.0955 25.3111L36.8601 26.6087L37.517 24.1965L28.6179 21.773L27.961 24.1852L29.6596 24.6477C29.5492 25.6392 29.3236 26.4716 29.0148 27.1149C28.6121 27.9534 28.1114 28.3931 27.5968 28.567C26.7336 28.8586 25.3866 28.4999 23.7863 26.9125C22.2453 25.384 20.756 22.9641 19.755 20.0014ZM21.6943 28.3469H11.3331C10.6677 28.3469 10.1419 28.6189 9.8679 28.7606C9.83477 28.7778 9.80533 28.793 9.77976 28.8056C9.52659 28.9306 9.28956 29.0327 8.85534 29.0519C8.75301 29.0565 8.25554 28.9388 7.53096 28.1407C6.86152 27.4034 6.16593 26.2553 5.65729 24.7361C5.14111 23.1944 4.94752 21.7659 5.01193 20.7273C5.04434 20.2047 5.1382 19.8455 5.23803 19.6332C5.27569 19.5531 5.30616 19.5091 5.32451 19.487C5.34359 19.4844 5.37225 19.4817 5.41175 19.4805C5.50529 19.4777 5.63384 19.4846 5.79647 19.5095L6.30812 19.5878C6.38884 21.0525 6.67539 22.5637 7.18214 24.0636L7.58224 25.2478L9.95071 24.4476L9.55061 23.2634C8.90253 21.3452 8.6834 19.4347 8.8259 17.7007L16.2547 12.0144C15.9584 14.5698 16.3295 17.673 17.3865 20.8016C18.4195 23.859 19.9586 26.4998 21.6943 28.3469ZM15 30.8469V33.7499H17.5V30.8469H15Z" fill="white"/>
<path d="M30.465 9.74257L33.4827 6.7248L31.715 4.95703L28.6972 7.9748L30.465 9.74257Z" fill="white"/>
<path d="M35.3421 13.4157L28.2367 15.8164L28.6368 17.0006C28.8857 17.7375 29.091 18.4683 29.254 19.1843L29.5315 20.4031L31.9691 19.8481L31.6917 18.6293C31.5986 18.2207 31.4935 17.8087 31.3761 17.3945L36.1423 15.7842L35.3421 13.4157Z" fill="white"/>
<path d="M27.4528 17.4005C28.1158 19.3627 27.1086 21.4751 25.2033 22.1188C23.8901 22.5625 22.7867 21.1631 22.1238 19.201C21.4609 17.2389 21.4894 15.4571 22.8026 15.0134C24.708 14.3697 26.7899 15.4384 27.4528 17.4005Z" fill="white"/>
</svg>
