<svg width="40" height="40" viewBox="0 0 40 40" fill="none" xmlns="http://www.w3.org/2000/svg">
<rect x="11.25" y="6.25" width="23.75" height="27.5" fill="#46647A"/>
<path fill-rule="evenodd" clip-rule="evenodd" d="M36.25 5H11.25V15H3.75V30C3.75 32.7614 5.98858 35 8.75 35H36.25V5ZM13.0811 32.5H33.75V7.5H13.75V30C13.75 30.9107 13.5065 31.7646 13.0811 32.5ZM11.25 17.5H6.25V30C6.25 31.3807 7.36929 32.5 8.75 32.5C10.1307 32.5 11.25 31.3807 11.25 30V17.5Z" fill="white"/>
<path fill-rule="evenodd" clip-rule="evenodd" d="M31.25 12.5H16.25V10H31.25V12.5Z" fill="white"/>
<path fill-rule="evenodd" clip-rule="evenodd" d="M31.25 17.5H16.25V15H31.25V17.5Z" fill="white"/>
<path fill-rule="evenodd" clip-rule="evenodd" d="M31.25 22.5H26.25V20H31.25V22.5Z" fill="white"/>
<path fill-rule="evenodd" clip-rule="evenodd" d="M31.25 27.5H26.25V25H31.25V27.5Z" fill="white"/>
<path d="M16.25 20H23.75V30H16.25V20Z" fill="white"/>
</svg>
