<svg width="26" height="25" viewBox="0 0 26 25" fill="none" xmlns="http://www.w3.org/2000/svg">
<g clip-path="url(#clip0_1837_7982)">
<path d="M6 1.5H25V19.6333C25 21.7688 23.2688 23.5 21.1333 23.5H6V1.5Z" fill="#656929"/>
<path fill-rule="evenodd" clip-rule="evenodd" d="M6 0.5H26V19.5C26 22.2614 23.7614 24.5 21 24.5H4V22.5H21C22.6569 22.5 24 21.1569 24 19.5V2.5H8V12.5H6V0.5Z" fill="#E0F16F"/>
<path fill-rule="evenodd" clip-rule="evenodd" d="M0 8.5H8V20.5C8 22.7091 6.20914 24.5 4 24.5C1.79086 24.5 0 22.7091 0 20.5V8.5ZM2 10.5V20.5C2 21.6046 2.89543 22.5 4 22.5C5.10457 22.5 6 21.6046 6 20.5V10.5H2Z" fill="#E0F16F"/>
<path fill-rule="evenodd" clip-rule="evenodd" d="M22 6.5H10V4.5H22V6.5Z" fill="#E0F16F"/>
<path fill-rule="evenodd" clip-rule="evenodd" d="M22 10.5H10V8.5H22V10.5Z" fill="#E0F16F"/>
<path fill-rule="evenodd" clip-rule="evenodd" d="M22 14.5H18V12.5H22V14.5Z" fill="#E0F16F"/>
<path fill-rule="evenodd" clip-rule="evenodd" d="M22 18.5H18V16.5H22V18.5Z" fill="#E0F16F"/>
<path d="M10 12.5H16V20.5H10V12.5Z" fill="#E0F16F"/>
</g>
<defs>
<clipPath id="clip0_1837_7982">
<rect width="26.0001" height="25" fill="white"/>
</clipPath>
</defs>
</svg>
