<svg width="26" height="24" viewBox="0 0 26 24" fill="none" xmlns="http://www.w3.org/2000/svg">
<g id="Frame" clip-path="url(#clip0_1611_10693)">
<path id="Vector" fill-rule="evenodd" clip-rule="evenodd" d="M21.9335 20.2359C20.1999 22.0232 18.1109 23.2276 15.6446 23.7131C11.1983 24.5899 7.32777 23.4554 4.12955 20.305C2.29784 18.4985 1.21294 16.2915 0.838759 13.7686C-0.0743461 7.61112 3.86126 1.8702 10.0279 0.360568C11.8372 -0.0885941 13.7287 -0.118538 15.552 0.27312C15.5622 0.294598 15.5763 0.316844 15.5724 0.33909C15.4798 0.917477 15.3763 1.49356 15.1951 2.05354C14.686 2.36575 14.1533 2.54755 13.5477 2.35347C13.434 2.31819 13.321 2.28137 13.2018 2.26756C12.8519 2.22767 12.5742 2.32279 12.404 2.64573C12.3669 2.7241 12.311 2.79256 12.2411 2.84531C12.1712 2.89805 12.0893 2.93353 12.0023 2.94874C11.7089 3.00013 11.5403 2.81373 11.6289 2.53757C11.7442 2.17858 11.6352 2.00828 11.2414 1.99217C10.6374 1.96763 10.0334 1.96456 9.43717 2.09266C9.04965 2.17704 8.6935 2.31895 8.38913 2.57363C8.32246 2.62963 8.24323 2.68486 8.25813 2.78074C8.27774 2.89044 8.38051 2.91422 8.4715 2.9449C8.60015 2.98862 8.72253 2.95411 8.84333 2.91192C9.04572 2.84288 9.24184 2.75313 9.45521 2.72014C9.74546 2.67565 9.89764 2.81219 9.87881 3.09909C9.8545 3.46345 9.56974 3.69742 9.20026 3.64219C8.6786 3.56318 8.20871 3.66367 7.73411 3.90837C7.29482 4.13313 6.83827 4.38473 6.29856 4.30572C6.19815 4.29115 6.13383 4.34561 6.08598 4.42539C6.04519 4.49253 6.01254 4.5641 5.9887 4.63864C5.96012 4.75252 5.89948 4.85629 5.81365 4.93818C5.72783 5.02008 5.62025 5.07682 5.50313 5.10196C5.35832 5.14524 5.22047 5.20825 5.09364 5.28913C5.01815 5.33269 4.95121 5.38906 4.89596 5.45559C4.79555 5.57756 4.71553 5.72791 4.82536 5.85755C4.92498 5.97415 5.06462 5.87059 5.17209 5.81612C5.32113 5.74095 5.45998 5.64736 5.58 5.53307C5.87966 5.24924 6.24444 5.08279 6.63902 4.97232C6.9575 4.88411 7.04615 4.9286 7.17245 5.22546C7.24854 5.40496 7.316 5.5883 7.39602 5.76626C7.4321 5.84604 7.45956 5.97031 7.59213 5.90281C7.70666 5.84451 7.66508 5.74479 7.62429 5.65734C7.56781 5.5369 7.50035 5.42184 7.44387 5.30141C7.39131 5.18251 7.34346 5.05057 7.5027 4.98076C7.65018 4.91556 7.74196 5.01528 7.80628 5.13341C8.0024 5.49778 8.19459 5.86445 8.27147 6.29019C8.3502 6.21683 8.39946 6.11831 8.41032 6.0125C8.43542 5.84374 8.51386 5.74555 8.70056 5.73558C8.97512 5.71947 9.11946 5.77393 9.19398 5.96571C9.25047 6.11222 9.29832 6.26027 9.42932 6.36306C9.6019 6.4973 9.79017 6.58629 10.02 6.57478C10.1706 6.56864 10.3212 6.56941 10.4726 6.57861C10.6178 6.58705 10.6978 6.65532 10.6711 6.80414C10.5989 7.20073 10.4279 7.55972 10.202 7.89188C10.1165 8.01691 9.97138 8.04836 9.82076 8.05066C9.55797 8.0568 9.32107 7.96398 9.08965 7.86119C8.77038 7.71851 8.4464 7.59041 8.12399 7.45924C7.7906 7.32423 7.46269 7.30045 7.13401 7.46691C7.00849 7.52827 6.90495 7.52981 6.84219 7.38406C6.79277 7.27207 6.67745 7.24445 6.5794 7.19689C6.2766 7.05191 6.25228 6.99898 6.35426 6.68908C6.37309 6.63001 6.40133 6.57324 6.40603 6.51188C6.36603 6.44667 6.30562 6.47352 6.25463 6.48119C5.5698 6.57861 4.88184 6.6653 4.21584 6.84786C3.86126 6.94605 3.5114 7.09947 3.38745 7.50219C3.32548 7.70547 3.19683 7.84585 3.0015 7.95094C2.80382 8.0568 2.71361 8.26238 2.64536 8.46106C2.43512 9.07396 2.24293 9.69454 2.16684 10.3366C2.10016 10.9012 2.24842 11.4566 2.46493 11.9751C2.68458 12.5013 3.33176 12.6655 3.7836 12.3602C3.83695 12.326 3.8925 12.2953 3.94991 12.2681C4.06601 12.2098 4.16328 12.2114 4.22054 12.3471C4.31625 12.5734 4.48569 12.7023 4.73436 12.7514C4.90694 12.7836 4.99558 12.9179 5.04814 13.0736C5.12031 13.2922 5.136 13.5185 5.08344 13.7409C5.02304 14.0002 5.07325 14.2119 5.22857 14.439C5.65766 15.0588 5.87966 15.7584 5.86476 16.5071C5.85691 16.9136 6.01851 17.2496 6.18639 17.5894C6.55116 18.3274 6.99437 19.0162 7.53643 19.6453C7.79687 19.9475 8.14046 20.1262 8.48327 20.3011C8.69115 20.4062 8.91786 20.3548 9.10456 20.1968C9.31244 20.025 9.43089 19.7987 9.52346 19.5555C9.61837 19.3077 9.6827 19.0508 9.74859 18.7945C9.90941 18.1686 10.2883 17.7275 10.9135 17.5097C11.0939 17.4468 11.1441 17.3601 11.1073 17.1798C10.9818 16.5546 10.8664 15.9272 10.8994 15.2836C10.9182 14.9031 11.0092 14.7106 11.3881 14.6016C11.7764 14.4912 11.9639 14.258 12.0973 13.9013C12.3349 13.2677 12.6275 12.6517 12.8935 12.0273C12.9296 11.9429 12.968 11.8562 13.0268 11.7818C13.1712 11.6782 13.2465 11.804 13.3234 11.8785C13.7375 12.275 14.136 12.6885 14.5573 13.0774C15.7936 14.2196 16.9601 15.4286 18.1893 16.5754C19.2075 17.5235 20.1818 18.5138 21.1891 19.4734C21.3483 19.6245 21.5052 19.7787 21.6778 19.9168C21.7845 20.0012 21.9171 20.0787 21.9335 20.2359Z" fill="#4AA1CC"/>
<path id="Vector_2" fill-rule="evenodd" clip-rule="evenodd" d="M15.1563 2.05414L15.5517 0.272949C16.9292 0.538363 18.2157 1.03697 19.4018 1.76494C22.5474 3.69571 24.5125 6.44574 25.1126 10.0327C25.7543 13.8781 24.6733 17.2709 22.0038 20.1728C21.9826 20.1959 21.9568 20.2143 21.9332 20.235C21.6987 20.0148 21.461 19.797 21.2288 19.573C18.5663 17.0078 15.9055 14.4427 13.243 11.879C13.192 11.8292 13.1395 11.7824 13.0877 11.7341C13.0085 11.688 13.072 11.6382 13.0799 11.5883C13.4713 10.6954 13.8502 9.79639 14.2385 8.90273C14.2958 8.76926 14.364 8.65266 14.5178 8.60587C14.7484 8.53606 14.8512 8.56598 14.961 8.77846C15.0355 8.91731 15.143 8.95796 15.2905 8.9572C15.6882 8.95489 16.0859 8.95873 16.4836 8.95489C16.6515 8.95084 16.8162 9.00039 16.9527 9.09604C17.2445 9.29855 17.5379 9.498 17.8368 9.68977C18.0172 9.80637 18.1223 9.97896 18.1969 10.1715C18.4385 10.7967 18.695 11.4173 18.9539 12.0363C18.9931 12.1307 18.9774 12.2925 19.1437 12.291C19.2841 12.2902 19.4794 12.0716 19.4943 11.9258C19.5242 11.6397 19.5493 11.3536 19.6018 11.0705C19.7132 10.4768 20.0309 10.0081 20.5016 9.62917C20.5392 9.59925 20.5769 9.5724 20.6185 9.54709C20.8193 9.42512 20.9032 9.45734 20.9503 9.6798C20.9778 9.80867 20.9934 9.94137 21.0303 10.0687C21.1072 10.3326 21.25 10.5267 21.5582 10.5666C22.0713 10.6325 22.2407 11.0268 22.3851 11.4326C22.4768 11.6957 22.5153 11.9788 22.7067 12.202C22.7271 12.225 22.7404 12.2557 22.7796 12.2649C22.8487 12.1859 22.8291 12.0923 22.8197 12.001C22.7796 11.606 22.6973 11.2186 22.6275 10.8274C22.5833 10.6216 22.5091 10.4232 22.407 10.2382C22.1638 9.76571 22.1654 9.76571 22.5545 9.38523C22.7059 9.23642 22.855 9.08607 23.0095 8.94032C23.1609 8.79764 23.1931 8.63885 23.1068 8.45398C22.9718 8.16249 22.862 7.86332 22.7349 7.56876C22.6846 7.4463 22.6043 7.33779 22.5012 7.25272C22.334 7.1163 22.2272 6.92199 22.2031 6.71038C22.1839 6.58026 22.1345 6.45615 22.0587 6.34755C21.6323 5.67196 21.1311 5.04428 20.5643 4.47585C19.9932 3.91396 19.3572 3.41893 18.6691 3.00073C18.1827 2.70156 17.6823 2.43615 17.1771 2.17304C16.6217 1.88461 16.0522 1.87847 15.463 2.02269C15.3713 2.04416 15.2842 2.08942 15.1853 2.07638L15.1563 2.05414Z" fill="#EB1C23"/>
<path id="Vector_3" fill-rule="evenodd" clip-rule="evenodd" d="M13.1106 11.6336L13.0871 11.7341C12.7184 12.5933 12.3473 13.4524 11.9833 14.3131C11.93 14.4389 11.8625 14.5263 11.7158 14.5401C11.6609 14.5447 11.6091 14.5716 11.5566 14.5908C11.0294 14.7772 10.9714 14.8708 10.9557 15.4215C10.9408 16.0413 11.0702 16.6412 11.1871 17.2426C11.2185 17.4037 11.2083 17.4934 11.0145 17.5456C10.3689 17.722 9.98218 18.1554 9.81666 18.7837C9.70997 19.1902 9.62447 19.6022 9.39776 19.9665C9.21028 20.2695 8.95847 20.4552 8.57565 20.4061C8.52937 20.4 8.47916 20.3984 8.43994 20.3785C7.85395 20.0854 7.40446 19.649 7.03341 19.1212C6.5764 18.4752 6.18742 17.7857 5.87242 17.0631C5.82718 16.9638 5.8052 16.8558 5.8081 16.7471C5.83163 15.8335 5.59629 14.995 5.02678 14.2586C4.89421 14.0883 5.00325 13.9127 5.02286 13.7447C5.04717 13.5168 5.05345 13.2951 4.98991 13.0742C4.94598 12.9208 4.85341 12.8172 4.67848 12.7965C4.42589 12.7674 4.24076 12.6416 4.178 12.3969C4.1325 12.2151 4.05092 12.2749 3.94894 12.3332C3.76067 12.4398 3.58495 12.5465 3.34491 12.5695C2.83187 12.6193 2.44514 12.1951 2.32119 11.8239C2.02859 10.9509 2.0435 10.0864 2.34316 9.22036C2.42945 8.97105 2.48201 8.70871 2.56987 8.46094C2.66871 8.18632 2.80363 7.93011 3.11036 7.81504C3.21783 7.77362 3.23822 7.66853 3.28764 7.57955C3.40296 7.37473 3.43512 7.12696 3.68693 6.99426C4.22036 6.71043 4.81105 6.6552 5.3892 6.54781C5.75161 6.48031 6.11952 6.43811 6.51489 6.38058C6.47567 6.51099 6.45213 6.59997 6.42389 6.68742C6.30701 7.03261 6.30544 7.03491 6.65844 7.17069C6.78239 7.21825 6.91731 7.23206 6.92437 7.41616C6.9283 7.52048 7.01694 7.46218 7.06636 7.4338C7.42643 7.21901 7.7912 7.2474 8.16146 7.40465C8.53329 7.5619 8.90434 7.71916 9.27852 7.87104C9.3805 7.91323 9.48719 7.94852 9.59544 7.9723C9.94688 8.04901 10.1077 7.9746 10.2771 7.66623C10.4277 7.39161 10.5384 7.10165 10.6168 6.79865C10.6474 6.67668 10.6168 6.62222 10.4811 6.62989C10.3383 6.63756 10.1948 6.63756 10.052 6.64063C9.57191 6.6483 9.28794 6.44502 9.14595 5.98706C9.07221 5.75003 8.87139 5.79759 8.69332 5.78762C8.51446 5.77765 8.48936 5.87354 8.48387 6.01928C8.47995 6.18191 8.35836 6.2962 8.24461 6.4734C8.17009 5.9886 7.98182 5.59738 7.781 5.21154C7.75511 5.16321 7.73472 5.11181 7.70726 5.06502C7.65549 4.97987 7.57626 4.98524 7.49781 5.019C7.41074 5.05812 7.4225 5.12485 7.4578 5.19466C7.54566 5.36956 7.62411 5.54752 7.72138 5.71705C7.81787 5.88274 7.70334 5.93797 7.58959 6.00164C7.44682 6.08218 7.41387 5.9863 7.37308 5.88274C7.27895 5.64341 7.17226 5.40868 7.08362 5.16781C7.02871 5.01823 6.94791 4.95916 6.7816 5.00135C6.37604 5.10338 5.99401 5.24299 5.68337 5.53065C5.48098 5.72012 5.25662 5.88197 4.98442 5.96175C4.7632 6.02542 4.6926 5.96329 4.70045 5.73699C4.70594 5.55596 4.8087 5.43322 4.93657 5.32276C5.0762 5.20233 5.23623 5.0957 5.41195 5.06502C5.73357 5.00749 5.88027 4.81648 5.96185 4.53343C6.02461 4.31557 6.12266 4.14758 6.41683 4.2496C6.56588 4.301 6.74787 4.27261 6.88358 4.19974C7.28052 3.98726 7.73079 3.90134 8.1191 3.66201C8.43131 3.47024 8.8204 3.50169 9.16556 3.583C9.24445 3.60153 9.32664 3.60214 9.4058 3.58478C9.48497 3.56742 9.55902 3.53255 9.62227 3.48285C9.68551 3.43315 9.73627 3.36995 9.77065 3.29808C9.80502 3.22622 9.82211 3.14761 9.82058 3.06828C9.82058 2.83585 9.7186 2.74073 9.48248 2.77832C9.24558 2.81667 9.02593 2.91103 8.80471 2.99617C8.6337 3.06138 8.47916 3.03606 8.32306 2.95935C8.10969 2.85426 8.09164 2.75224 8.26815 2.58962C8.61487 2.26974 9.03534 2.10175 9.49739 2.0143C10.0724 1.90537 10.6521 1.90844 11.2326 1.92531C11.3314 1.92838 11.4366 1.95676 11.5307 1.99435C11.7715 2.08794 11.8225 2.22371 11.7221 2.48069C11.6672 2.61723 11.5652 2.76605 11.7574 2.86577C11.93 2.95552 12.0986 2.89875 12.2383 2.77372C12.2853 2.73383 12.3151 2.67553 12.3481 2.62183C12.5858 2.23062 12.8721 2.06492 13.302 2.22064C13.9194 2.4454 14.481 2.37099 15.0443 2.09638C15.0803 2.07873 15.1188 2.06799 15.1564 2.05419L15.1745 2.05956C15.2239 2.23445 15.1525 2.39938 15.1157 2.5643C14.5744 5.06656 14.0409 7.57188 13.4973 10.0757C13.382 10.5981 13.2934 11.1266 13.1106 11.6329M12.0696 19.2877C11.799 19.2877 11.6397 19.1066 11.6876 18.8658C11.7684 18.4707 11.8735 18.0803 11.981 17.6921C12.0335 17.5026 12.192 17.4275 12.3834 17.4213C12.607 17.4137 12.7968 17.3546 12.9419 17.1659C13.0502 17.0247 13.1828 17.0631 13.2722 17.1989C13.3428 17.3047 13.3671 17.4252 13.3294 17.5563C13.1663 18.137 12.887 18.651 12.4462 19.0775C12.3238 19.1956 12.1857 19.2808 12.0696 19.2877Z" fill="#1E632E"/>
<path id="Vector_4" fill-rule="evenodd" clip-rule="evenodd" d="M13.1106 11.6335C13.2392 11.0106 13.3632 10.3878 13.4965 9.76566C13.9398 7.69528 14.383 5.6249 14.834 3.55528C14.9423 3.05591 15.0239 2.55039 15.1745 2.05946C15.8734 1.79404 16.5606 1.77947 17.2415 2.13463C17.7106 2.3801 18.1719 2.63401 18.6269 2.90326C20.0413 3.74015 21.1528 4.86548 22.04 6.21402C22.1467 6.37511 22.2652 6.51779 22.2754 6.74255C22.2848 6.94046 22.3797 7.16445 22.6245 7.25036C22.6919 7.27338 22.7006 7.34472 22.7241 7.40148C22.8771 7.75971 23.0261 8.11871 23.1861 8.47464C23.2724 8.66642 23.2293 8.81447 23.0802 8.95561C22.8402 9.18344 22.6119 9.42277 22.3719 9.64983C22.2707 9.74725 22.2495 9.83777 22.3272 9.95743C22.7468 10.6033 22.7837 11.3489 22.8896 12.0754C22.9069 12.1904 22.8676 12.3009 22.8072 12.4628C22.6543 12.2173 22.4778 12.0432 22.4221 11.7954C22.3786 11.5903 22.3144 11.3899 22.2307 11.1971C22.0801 10.8595 21.8502 10.6317 21.4501 10.6064C21.196 10.5911 21.0916 10.3939 21.0085 10.1991C20.9424 10.0321 20.9032 9.85615 20.8924 9.67744C20.8791 9.51789 20.8257 9.47416 20.6735 9.57849C20.1221 9.96127 19.7698 10.4652 19.6561 11.1203C19.6014 11.4023 19.5699 11.688 19.562 11.9749C19.562 12.0976 19.2058 12.4121 19.0811 12.3929C18.9854 12.3784 18.9815 12.2817 18.9556 12.2165C18.6787 11.5392 18.4033 10.8611 18.1335 10.1807C18.0609 9.9821 17.924 9.81214 17.7436 9.69662C17.5239 9.55854 17.3004 9.42047 17.0948 9.26091C16.9801 9.16641 16.8473 9.09505 16.7042 9.05095C16.561 9.00685 16.4104 8.99087 16.261 9.00394C15.9127 9.03002 15.562 9.01007 15.2121 9.01928C15.0662 9.02312 14.9737 8.98553 14.9203 8.84208C14.889 8.7554 14.8992 8.61195 14.7242 8.6342C14.5571 8.65491 14.401 8.65568 14.3202 8.85205C14.0692 9.46343 13.8072 10.0725 13.5405 10.6777C13.3993 10.9976 13.2895 11.3298 13.1106 11.6335ZM23.7949 13.0803C23.7509 13.9379 23.5493 14.7656 23.3062 15.5864C23.2591 15.7513 23.1657 15.7536 23.0441 15.6631C22.8975 15.5526 22.7696 15.4299 22.7508 15.2312C22.748 15.1528 22.7212 15.0771 22.6738 15.0138C22.6263 14.9506 22.5605 14.9028 22.4848 14.8768C22.3021 14.8078 22.226 14.6543 22.1875 14.4817C22.0801 13.9977 21.9789 13.5114 21.873 13.0266C21.849 12.9442 21.8479 12.8571 21.8698 12.7742C21.9075 12.6676 21.9161 12.6238 22.0895 12.6798C22.3538 12.7658 22.586 12.8148 22.7131 13.0941C22.7586 13.1915 22.9178 13.1999 23.0339 13.1171C23.1555 13.0289 23.2771 12.943 23.4026 12.8601C23.5007 12.7964 23.6066 12.7665 23.7164 12.8302C23.8153 12.8893 23.8066 12.9867 23.7949 13.0803Z" fill="#751417"/>
<path id="Vector_5" fill-rule="evenodd" clip-rule="evenodd" d="M13.9766 10.895C14.0903 10.3964 14.197 9.907 14.3139 9.4199C14.3704 9.1844 14.612 9.10539 14.8073 9.25114C15.0136 9.40686 15.2121 9.57408 15.4223 9.72443C15.558 9.82185 15.5306 9.88859 15.4325 10.0006C15.0489 10.4455 14.5696 10.7401 13.9766 10.895Z" fill="#751417"/>
<path id="Vector_6" fill-rule="evenodd" clip-rule="evenodd" d="M10.5273 8.5625C10.6269 8.79646 10.7195 9.01585 10.8144 9.23524C10.9187 9.47841 11.0733 9.66711 11.3337 9.77987C11.5965 9.89494 11.5957 10.023 11.4177 10.2463C11.278 10.4189 11.1878 10.4611 11.0066 10.2831C10.8529 10.132 10.7164 9.99466 10.6662 9.77374C10.605 9.50219 10.5046 9.23907 10.4206 8.97289C10.372 8.82254 10.3806 8.68754 10.5273 8.5625Z" fill="#479ECA"/>
<path id="Vector_7" d="M21.5347 19.2402L20.3533 20.3962L10.499 10.7592L11.6796 9.604L21.5347 19.2402Z" fill="white"/>
<path id="Vector_8" d="M13.6118 4.71143L15.2466 5.05355L13.1286 14.7281L11.4954 14.386L13.6118 4.71143Z" fill="white"/>
</g>
<defs>
<clipPath id="clip0_1611_10693">
<rect width="24.5854" height="24" fill="white" transform="translate(0.707275)"/>
</clipPath>
</defs>
</svg>
