<svg width="33" height="32" viewBox="0 0 33 32" fill="none" xmlns="http://www.w3.org/2000/svg">
<path d="M17.2438 5.78735L20.7793 9.32289L14.7438 11.3584L11.2082 7.82289L17.2438 5.78735Z" fill="#46647A"/>
<path d="M25.229 14.2725L28.7645 17.808L23.229 19.8435L19.6935 16.308L25.229 14.2725Z" fill="#46647A"/>
<path d="M20.3918 10.2704C20.7196 10.1598 20.967 9.88768 21.0459 9.55085C21.1247 9.21401 21.0239 8.86033 20.7793 8.6157L17.9509 5.78728C17.6821 5.51855 17.2843 5.42537 16.9242 5.54682L10.8887 7.58236C10.7427 7.63159 10.6101 7.71388 10.5011 7.82281L6.9656 11.3583C3.45088 14.8731 3.45088 20.5715 6.9656 24.0863C10.4803 27.601 16.1788 27.601 19.6935 24.0863L23.0735 20.7063L28.4026 18.7467C28.7228 18.6289 28.9609 18.3561 29.0341 18.0229C29.1074 17.6898 29.0058 17.3422 28.7646 17.101L25.9362 14.2726C25.6605 13.9969 25.2498 13.9066 24.8839 14.0411L19.3484 16.0766C19.2124 16.1267 19.0889 16.2056 18.9864 16.3081L15.4509 19.8436C14.2793 21.0152 12.3798 21.0152 11.2082 19.8436C10.0367 18.6721 10.0367 16.7726 11.2082 15.601L14.5782 12.2311L20.3918 10.2704Z" stroke="white" stroke-width="2" stroke-linejoin="round"/>
<path d="M20.3918 10.2704C20.7196 10.1598 20.967 9.88768 21.0459 9.55085C21.1247 9.21401 21.0239 8.86033 20.7793 8.6157L17.9509 5.78728C17.6821 5.51855 17.2843 5.42537 16.9242 5.54682L10.8887 7.58236C10.7427 7.63159 10.6101 7.71388 10.5011 7.82281L6.9656 11.3583C3.45088 14.8731 3.45088 20.5715 6.9656 24.0863C10.4803 27.601 16.1788 27.601 19.6935 24.0863L23.0735 20.7063L28.4026 18.7467C28.7228 18.6289 28.9609 18.3561 29.0341 18.0229C29.1074 17.6898 29.0058 17.3422 28.7646 17.101L25.9362 14.2726C25.6605 13.9969 25.2498 13.9066 24.8839 14.0411L19.3484 16.0766C19.2124 16.1267 19.0889 16.2056 18.9864 16.3081L15.4509 19.8436C14.2793 21.0152 12.3798 21.0152 11.2082 19.8436C10.0367 18.6721 10.0367 16.7726 11.2082 15.601L14.5782 12.2311L20.3918 10.2704Z" stroke="white" stroke-width="2" stroke-linejoin="round"/>
<path d="M28.7621 18.5161L26.4845 21.046C25.3911 22.2606 24.0292 23.2032 22.5073 23.7987L16.6906 26.075" stroke="white" stroke-width="2" stroke-linejoin="round"/>
<path d="M10.6779 7.99951L14.5669 11.8886" stroke="white" stroke-width="2" stroke-linecap="round"/>
<path d="M18.9863 16.3081L22.8754 20.1972" stroke="white" stroke-width="2" stroke-linecap="round"/>
<path d="M20.7773 10.0312L17.3189 13.4799C15.9547 14.8441 15.7819 16.9485 16.8004 18.5003" stroke="white" stroke-width="2" stroke-linejoin="round"/>
</svg>
