<svg width="33" height="32" viewBox="0 0 33 32" fill="none" xmlns="http://www.w3.org/2000/svg">
<path fill-rule="evenodd" clip-rule="evenodd" d="M17.8622 6.31276C20.9776 4.02365 25.3589 4.69352 27.648 7.80895C29.9371 10.9244 29.2672 15.3056 26.1518 17.5947C23.7959 19.3258 20.7161 19.3647 18.3646 17.9336C18.1048 17.7755 17.7922 17.7184 17.5 17.8028L16.7354 18.0235C16.5071 18.0894 16.3098 18.2344 16.1787 18.4325L14.4169 21.0957C14.2858 21.2938 14.0884 21.4388 13.8602 21.5047L10.7922 22.3903C10.564 22.4562 10.3666 22.6012 10.2355 22.7994L8.86172 24.876C8.54206 25.3592 7.87995 25.4704 7.41989 25.1183L4.36644 22.781C3.83706 22.3758 3.84492 21.5758 4.38216 21.1811L14.6232 13.6563C14.9343 13.4278 15.0797 13.0409 15.0413 12.6568C14.8031 10.2751 15.7936 7.83272 17.8622 6.31276ZM22.4345 9.15781C21.5443 9.81184 21.3529 11.0636 22.007 11.9537C22.661 12.8439 23.9128 13.0353 24.8029 12.3812C25.693 11.7272 25.8844 10.4754 25.2304 9.58529C24.5764 8.69517 23.3246 8.50378 22.4345 9.15781Z" fill="#46647A"/>
<path d="M25.2304 9.58529L24.4245 10.1774L25.2304 9.58529ZM15.0413 12.6568L16.0363 12.5573L15.0413 12.6568ZM4.36644 22.781L3.75861 23.5751L4.36644 22.781ZM7.41989 25.1183L6.81206 25.9124L7.41989 25.1183ZM10.7922 22.3903L10.5149 21.4296L10.7922 22.3903ZM10.2355 22.7994L9.40154 22.2476L10.2355 22.7994ZM14.4169 21.0957L15.2509 21.6475L14.4169 21.0957ZM13.8602 21.5047L14.1375 22.4655L13.8602 21.5047ZM16.7354 18.0235L17.0127 18.9843L16.7354 18.0235ZM16.1787 18.4325L15.3447 17.8808L16.1787 18.4325ZM18.3646 17.9336L17.8447 18.7878L18.3646 17.9336ZM17.5 17.8028L17.2227 16.842L17.5 17.8028ZM28.4538 7.21684C25.8377 3.65635 20.8306 2.89078 17.2701 5.5069L18.4543 7.11861C21.1247 5.15652 24.88 5.7307 26.8421 8.40107L28.4538 7.21684ZM26.7439 18.4006C30.3044 15.7845 31.0699 10.7773 28.4538 7.21684L26.8421 8.40107C28.8042 11.0714 28.23 14.8268 25.5597 16.7889L26.7439 18.4006ZM17.8447 18.7878C20.5304 20.4223 24.0501 20.3798 26.7439 18.4006L25.5597 16.7889C23.5416 18.2717 20.9018 18.3071 18.8844 17.0794L17.8447 18.7878ZM17.0127 18.9843L17.7774 18.7635L17.2227 16.842L16.4581 17.0627L17.0127 18.9843ZM15.2509 21.6475L17.0127 18.9843L15.3447 17.8808L13.5828 20.5439L15.2509 21.6475ZM11.0696 23.3511L14.1375 22.4655L13.5828 20.5439L10.5149 21.4296L11.0696 23.3511ZM9.69573 25.4277L11.0696 23.3511L9.40154 22.2476L8.02772 24.3242L9.69573 25.4277ZM3.75861 23.5751L6.81206 25.9124L8.02772 24.3242L4.97427 21.9869L3.75861 23.5751ZM14.031 12.8505L3.79004 20.3752L4.97427 21.9869L15.2153 14.4622L14.031 12.8505ZM17.2701 5.5069C14.9049 7.24472 13.7744 10.0373 14.0462 12.7563L16.0363 12.5573C15.8319 10.5128 16.6822 8.42071 18.4543 7.11861L17.2701 5.5069ZM22.8128 11.3616C22.4858 10.9166 22.5815 10.2907 23.0266 9.96366L21.8424 8.35195C20.5072 9.333 20.2201 11.2107 21.2011 12.5459L22.8128 11.3616ZM24.2108 11.5754C23.7657 11.9024 23.1398 11.8067 22.8128 11.3616L21.2011 12.5459C22.1822 13.881 24.0598 14.1681 25.395 13.1871L24.2108 11.5754ZM24.4245 10.1774C24.7516 10.6225 24.6559 11.2484 24.2108 11.5754L25.395 13.1871C26.7302 12.206 27.0173 10.3284 26.0363 8.99318L24.4245 10.1774ZM23.0266 9.96366C23.4716 9.63665 24.0975 9.73234 24.4245 10.1774L26.0363 8.99318C25.0552 7.658 23.1775 7.37091 21.8424 8.35195L23.0266 9.96366ZM15.2153 14.4622C15.8505 13.9955 16.1047 13.2419 16.0363 12.5573L14.0462 12.7563C14.0499 12.7928 14.0437 12.8216 14.0369 12.8384C14.0308 12.8532 14.0269 12.8536 14.031 12.8505L15.2153 14.4622ZM4.97427 21.9869L4.97427 21.9869L3.79004 20.3752C2.71557 21.1647 2.69986 22.7646 3.75861 23.5751L4.97427 21.9869ZM8.02772 24.3242L6.81206 25.9124C7.73218 26.6167 9.05639 26.3941 9.69573 25.4277L8.02772 24.3242ZM10.5149 21.4296C10.0584 21.5613 9.6637 21.8513 9.40154 22.2476L11.0696 23.3511L10.5149 21.4296ZM13.5828 20.5439L14.1375 22.4655C14.594 22.3337 14.9887 22.0437 15.2509 21.6475L13.5828 20.5439ZM16.4581 17.0627C16.0016 17.1945 15.6069 17.4845 15.3447 17.8808L17.0127 18.9843L16.4581 17.0627ZM18.8844 17.0794C18.4181 16.7955 17.8184 16.6701 17.2227 16.842L17.7774 18.7635C17.773 18.7648 17.7751 18.7629 17.7868 18.7648C17.7996 18.7668 17.8203 18.773 17.8447 18.7878L18.8844 17.0794Z" fill="white"/>
</svg>
