<svg width="33" height="32" viewBox="0 0 33 32" fill="none" xmlns="http://www.w3.org/2000/svg">
<path d="M23.4624 13.9206C23.9927 15.4903 23.187 17.1802 21.6627 17.6952C20.6122 18.0502 19.7295 16.9307 19.1991 15.361C18.6688 13.7913 18.6917 12.3658 19.7422 12.0109C21.2665 11.4959 22.9321 12.3509 23.4624 13.9206Z" fill="white"/>
<path d="M26.8721 5.37988L25.2376 7.51541" stroke="white" stroke-width="2" stroke-linecap="round"/>
<path d="M6.37099 14.52C6.37099 14.52 6.75732 14.5814 6.368 14.5223C5.97869 14.4633 5.14649 14.4723 4.91194 14.5516C3.73467 14.9493 3.5685 17.6046 4.54077 20.4824C5.51305 23.3601 7.07274 25.1477 8.25 24.75C8.48455 24.6708 9.19719 24.3381 9.47092 24.055L23 24L19 21.25L16.3569 16.3213L15.5 11.5L16.1583 6.36084L9.99272 12.9152C9.99272 12.9152 6.368 14.5223 6.37099 14.52Z" fill="#46647A"/>
<path d="M16.1331 7.10522L7.61081 13.6284M21.6816 23.6776C21.6816 23.6776 11.1863 23.6776 10.5665 23.6776C9.94662 23.6776 9.69868 24.1932 8.62855 24.2407C7.55842 24.2881 5.96464 22.7559 5.07757 20.1065C4.19051 17.457 4.34212 15.0123 5.41621 14.6461C5.6302 14.5732 5.93329 14.5648 6.28849 14.6192L7.61081 13.6284M8.1931 18.9309C7.57735 17.1084 7.4035 15.2775 7.61081 13.6284" stroke="white" stroke-width="2" stroke-linecap="round"/>
<path d="M12 23.5V27C12 27.5523 12.4477 28 13 28H15C15.5523 28 16 27.5523 16 27V23.5" stroke="white" stroke-width="2"/>
<path d="M29.1466 12.0001L25.357 13.2804C25.567 13.9019 25.7405 14.5192 25.8785 15.1255M25.0967 18.6461L26.2823 18.969M30.2862 20.0594L26.2823 18.969M26.2823 18.969C26.2029 21.4402 25.3731 23.3026 23.8977 23.801C21.4124 24.6407 18.0362 21.2919 16.3568 16.3212C14.6774 11.3506 15.3308 6.64034 17.8161 5.80065C19.7607 5.14365 22.2507 7.05082 24.0465 10.2927" stroke="white" stroke-width="2" stroke-linecap="round" stroke-linejoin="round"/>
</svg>
